<?xml version="1.0" encoding="UTF-8"?>
<svg width="212px" height="212px" viewBox="0 0 212 212" version="1.1" xmlns="http://www.w3.org/2000/svg" xmlns:xlink="http://www.w3.org/1999/xlink">
    <!-- Generator: Sketch 60.1 (88133) - https://sketch.com -->
    <title>编组 22</title>
    <desc>Created with Sketch.</desc>
    <g id="组件" stroke="none" stroke-width="1" fill="none" fill-rule="evenodd">
        <g id="编组-22" transform="translate(0.000000, 54.000000)">
            <path d="M39.9803504,81.5755288 L93.608799,62.2237142 C94.6477928,61.8487935 95.7939971,62.3871311 96.1689178,63.426125 C96.2959715,63.7782208 96.3216653,64.1589059 96.2430767,64.5248813 L83.4007532,124.32971 C83.0703409,125.868392 81.8683921,127.070341 80.3297103,127.400753 L20.5248813,140.243077 C19.4449306,140.474982 18.3814609,139.787506 18.1495552,138.707555 C18.0709667,138.34158 18.0966605,137.960895 18.2237142,137.608799 L37.5755288,83.9803504 C37.9794777,82.8609127 38.8609127,81.9794777 39.9803504,81.5755288 Z" id="矩形备份-16" fill="#B6B6FF" transform="translate(57.000000, 101.000000) rotate(-315.000000) translate(-57.000000, -101.000000) "></path>
            <path d="M39.9803504,59.5755288 L93.608799,40.2237142 C94.6477928,39.8487935 95.7939971,40.3871311 96.1689178,41.426125 C96.2959715,41.7782208 96.3216653,42.1589059 96.2430767,42.5248813 L83.4007532,102.32971 C83.0703409,103.868392 81.8683921,105.070341 80.3297103,105.400753 L20.5248813,118.243077 C19.4449306,118.474982 18.3814609,117.787506 18.1495552,116.707555 C18.0709667,116.34158 18.0966605,115.960895 18.2237142,115.608799 L37.5755288,61.9803504 C37.9794777,60.8609127 38.8609127,59.9794777 39.9803504,59.5755288 Z" id="矩形备份-17" fill="#FFFFFF" opacity="0.9" transform="translate(57.000000, 79.000000) rotate(-315.000000) translate(-57.000000, -79.000000) "></path>
            <path d="M39.9803504,37.5755288 L93.608799,18.2237142 C94.6477928,17.8487935 95.7939971,18.3871311 96.1689178,19.426125 C96.2959715,19.7782208 96.3216653,20.1589059 96.2430767,20.5248813 L83.4007532,80.3297103 C83.0703409,81.8683921 81.8683921,83.0703409 80.3297103,83.4007532 L20.5248813,96.2430767 C19.4449306,96.4749824 18.3814609,95.787506 18.1495552,94.7075553 C18.0709667,94.3415799 18.0966605,93.9608948 18.2237142,93.608799 L37.5755288,39.9803504 C37.9794777,38.8609127 38.8609127,37.9794777 39.9803504,37.5755288 Z" id="矩形备份-18" fill="#FFFFFF" transform="translate(57.000000, 57.000000) rotate(-315.000000) translate(-57.000000, -57.000000) "></path>
        </g>
    </g>
</svg>