<?xml version="1.0" encoding="UTF-8"?>
<svg width="212px" height="212px" viewBox="0 0 212 212" version="1.1" xmlns="http://www.w3.org/2000/svg" xmlns:xlink="http://www.w3.org/1999/xlink">
    <!-- Generator: Sketch 60.1 (88133) - https://sketch.com -->
    <title>编组 24</title>
    <desc>Created with Sketch.</desc>
    <g id="组件" stroke="none" stroke-width="1" fill="none" fill-rule="evenodd">
        <g id="编组-24" transform="translate(0.000000, 127.000000)">
            <path d="M110,8 L110,14 C110,16.209139 111.790861,18 114,18 L114,18 L136,18 L136,60 C136,62.209139 134.209139,64 132,64 L4,64 C1.790861,64 0,62.209139 0,60 L0,12 C0,9.790861 1.790861,8 4,8 L110,8 Z M68,19 C58.6111593,19 51,26.6111593 51,36 C51,45.3888407 58.6111593,53 68,53 C77.3888407,53 85,45.3888407 85,36 C85,26.6111593 77.3888407,19 68,19 Z M45,20 L13,20 L13,52 L45,52 L45,20 Z M105,19 L86,52 L124,52 L105,19 Z" id="形状结合备份" fill="#FFFFFF"></path>
            <rect id="矩形备份-11" fill="#FFFFFF" x="112" y="0" width="32" height="16" rx="2"></rect>
            <text id=".XXX备份" font-family="FZLTTHK--GBK1-0, FZLanTingHei-H-GBK" font-size="8" font-weight="normal" fill="#534947">
                <tspan x="116" y="11">.XXX</tspan>
            </text>
        </g>
    </g>
</svg>